<?xml version="1.0" standalone="no"?>
<!DOCTYPE svg PUBLIC "-//W3C//DTD SVG 20010904//EN"
 "http://www.w3.org/TR/2001/REC-SVG-20010904/DTD/svg10.dtd">
<svg version="1.0" xmlns="http://www.w3.org/2000/svg"
 width="16.000000pt" height="16.000000pt" viewBox="0 0 16.000000 16.000000"
 preserveAspectRatio="xMidYMid meet">
<metadata>
Created by potrace 1.11, written by Peter Selinger 2001-2013
</metadata>
<g transform="translate(0.000000,16.000000) scale(0.000807,-0.000807)"
fill="#000000" stroke="none">
<path d="M4955 14850 l-4951 -4951 4950 -4949 c2722 -2723 4952 -4950 4955
-4950 3 0 2233 2227 4954 4948 l4948 4948 -4951 4952 c-2724 2724 -4953 4952
-4953 4952 -1 0 -2230 -2228 -4952 -4950z m9515 -917 c-10 -54 -87 -477 -171
-940 l-153 -843 -278 0 -278 0 0 34 c0 18 12 148 26 287 48 475 14 658 -156
830 -113 115 -265 173 -494 190 -155 11 -1883 12 -1890 1 -3 -5 -140 -638
-305 -1408 -166 -769 -303 -1409 -306 -1421 l-5 -23 1296 0 c1230 0 1296 -1
1292 -17 -3 -10 -27 -129 -54 -265 l-48 -248 -1293 0 -1293 0 -10 -22 c-8 -21
-680 -3172 -680 -3191 0 -14 2213 -2 2298 12 268 45 465 137 631 296 195 186
265 314 447 818 l78 217 278 0 c216 0 278 -3 278 -12 0 -7 -105 -429 -233
-938 l-234 -925 -2612 -3 -2613 -2 -92 -86 c-277 -261 -577 -418 -921 -481
-128 -24 -429 -24 -548 0 -325 65 -582 240 -772 526 -167 251 -273 571 -322
976 -24 194 -24 679 0 893 83 735 313 1382 716 2012 189 295 361 512 575 725
439 438 918 688 1491 777 189 29 569 32 749 5 217 -33 423 -95 601 -181 50
-24 91 -43 92 -42 2 1 29 132 62 292 128 618 210 1001 225 1059 26 91 32 294
12 378 -31 131 -96 223 -194 275 -109 58 -314 92 -559 92 -96 0 -124 3 -121
13 3 6 24 108 48 225 l44 212 2707 0 2706 0 -17 -97z"/>
<path d="M8418 11240 c-612 -70 -1105 -533 -1524 -1430 -341 -731 -497 -1445
-481 -2205 11 -521 93 -813 281 -1001 119 -119 234 -160 426 -152 98 4 130 10
217 40 188 64 355 178 553 377 474 475 871 1193 1045 1889 18 75 127 578 240
1117 161 766 204 985 196 1002 -20 44 -165 184 -236 229 -87 53 -202 97 -314
118 -103 20 -302 27 -403 16z"/>
</g>
</svg>
